#!OML:ASF G:\JayActor3\Patient Classification 1\Patient 1\Session 2\male.ASF
:FULLY-SPECIFIED
:DEGREES
1334
root 49.6902 16.3059 -6.25824 1273.16 -105.291 532.968
lowerback 1.90783 -0.223342 -0.91687
upperback 2.56281 -0.328431 -0.141801
thorax 1.56026 -0.189395 0.369764
lowerneck -2.81713 -7.63599 -7.33116
upperneck -12.7088 -9.22005 17.0822
head -2.02378 -5.06256 6.42904
rclavicle -1.8487e-014 1.11319e-014
rhumerus -40.6867 7.60062 -89.4662
rradius 48.4156
rwrist -15.8856
rhand -26.6106 8.3767
rfingers 7.12502
rthumb -0.0439696 -21.603
lclavicle -1.8487e-014 1.11319e-014
lhumerus -32.9692 -8.70275 78.2887
lradius 54.4262
lwrist 21.0959
lhand -17.9654 18.7716
lfingers 7.12502
lthumb 8.3037 48.5884
rfemur -23.098 3.17533 23.037
rtibia 44.124
rfoot -29.3162 -9.68312
rtoes 8.54933
lfemur -13.5381 -1.59088 -18.8064
ltibia 34.0142
lfoot -23.1659 7.25819
ltoes -20.1453
1335
root 49.709 16.2933 -6.23754 1273.05 -104.935 533.03
lowerback 2.04383 -0.174876 -0.879679
upperback 2.63474 -0.266633 -0.12755
thorax 1.55698 -0.159015 0.363559
lowerneck -2.97638 -7.55018 -7.21099
upperneck -12.9727 -9.08853 16.9452
head -2.1055 -5.00397 6.37556
rclavicle 3.18055e-015 6.36111e-015
rhumerus -40.5839 7.1113 -89.5799
rradius 47.964
rwrist -16.0368
rhand -26.9589 8.59877
rfingers 7.12502
rthumb -0.380387 -21.3806
lclavicle 3.18055e-015 6.36111e-015
lhumerus -32.8689 -8.36069 78.7823
lradius 54.8016
lwrist 21.2522
lhand -17.6255 18.6758
lfingers 7.12502
lthumb 8.63175 48.4794
rfemur -23.2531 3.28628 22.8507
rtibia 44.4011
rfoot -29.4758 -9.63648
rtoes 7.3222
lfemur -13.642 -1.59488 -19.0402
ltibia 34.3224
lfoot -23.1997 7.67205
ltoes -19.9524
1336
root 49.727 16.2795 -6.21635 1272.88 -104.522 533.14
lowerback 2.19738 -0.110773 -0.879847
upperback 2.70931 -0.184624 -0.120796
thorax 1.54652 -0.119189 0.370321
lowerneck -3.11644 -7.46044 -7.09021
upperneck -13.24 -8.95237 16.8232
head -2.19087 -4.94481 6.32767
rclavicle 2.69353e-014 -8.34896e-015
rhumerus -40.449 6.69033 -89.7155
rradius 47.5134
rwrist -16.1812
rhand -27.3014 8.82329
rfingers 7.12502
rthumb -0.711222 -21.1553
lclavicle 2.69353e-014 -8.34896e-015
lhumerus -32.7983 -7.98764 79.3238
lradius 55.1149
lwrist 21.3709
lhand -17.269 18.5826
lfingers 7.12502
lthumb 8.97575 48.3716
rfemur -23.419 3.4119 22.6393
rtibia 44.7135
rfoot -29.5951 -9.51751
rtoes 6.24773
lfemur -13.7136 -1.55238 -19.2975
ltibia 34.6163
lfoot -23.2353 8.05996
ltoes -19.6967
1337
root 49.7439 16.2648 -6.19466 1272.66 -104.055 533.286
lowerback 2.3704 -0.0332095 -0.912606
upperback 2.77985 -0.0853767 -0.120686
thorax 1.52087 -0.0712476 0.388139
lowerneck -3.24839 -7.36806 -6.96808
upperneck -13.49 -8.81464 16.7125
head -2.27186 -4.88521 6.28269
rclavicle 1.78906e-015 -7.15625e-015
rhumerus -40.3027 6.34283 -89.8748
rradius 47.09
rwrist -16.2938
rhand -27.6375 9.03482
rfingers 7.12502
rthumb -1.03584 -20.9424
lclavicle 1.78906e-015 -7.15625e-015
lhumerus -32.7621 -7.59991 79.9099
lradius 55.3664
lwrist 21.4374
lhand -16.9136 18.501
lfingers 7.12502
lthumb 9.3187 48.2751
rfemur -23.5998 3.5504 22.4091
rtibia 45.0603
rfoot -29.6709 -9.3324
rtoes 5.3321
lfemur -13.7561 -1.46791 -19.574
ltibia 34.8939
lfoot -23.2757 8.43058
ltoes -19.3892
1338
root 49.7592 16.2492 -6.17266 1272.42 -103.546 533.454
lowerback 2.54949 0.0539322 -0.974663
upperback 2.84915 0.0259359 -0.12356
thorax 1.49032 -0.0178064 0.418787
lowerneck -3.38393 -7.27584 -6.84661
upperneck -13.7111 -8.6795 16.6146
head -2.34245 -4.82636 6.24024
rclavicle -2.3059e-014 8.34896e-015
rhumerus -40.1498 6.06435 -90.0513
rradius 46.7136
rwrist -16.3377
rhand -27.9736 9.21276
rfingers 7.12502
rthumb -1.36042 -20.7626
lclavicle -2.3059e-014 8.34896e-015
lhumerus -32.7497 -7.20981 80.5384
lradius 55.5524
lwrist 21.4304
lhand -16.5727 18.4327
lfingers 7.12502
lthumb 9.64763 48.1918
rfemur -23.7976 3.69844 22.1687
rtibia 45.4388
rfoot -29.7087 -9.09351
rtoes 4.57191
lfemur -13.7722 -1.34492 -19.8606
ltibia 35.1539
lfoot -23.3313 8.78195
ltoes -19.0374
1339
root 49.773 16.2327 -6.15043 1272.16 -103.009 533.64
lowerback 2.73217 0.145416 -1.06213
upperback 2.9158 0.142273 -0.127552
thorax 1.45475 0.0376869 0.461992
lowerneck -3.53365 -7.18296 -6.71764
upperneck -13.8938 -8.54703 16.5161
head -2.39934 -4.76738 6.19403
rclavicle 1.98785e-016 -7.15625e-015
rhumerus -39.9918 5.84477 -90.2366
rradius 46.3934
rwrist -16.2861
rhand -28.3023 9.35704
rfingers 7.12502
rthumb -1.67784 -20.6161
lclavicle 1.98785e-016 -7.15625e-015
lhumerus -32.7534 -6.82504 81.2026
lradius 55.6607
lwrist 21.3292
lhand -16.2645 18.3509
lfingers 7.12502
lthumb 9.94494 48.096
rfemur -24.0139 3.85129 21.9233
rtibia 45.8477
rfoot -29.7161 -8.81344
rtoes 3.96248
lfemur -13.7663 -1.18886 -20.1516
ltibia 35.3958
lfoot -23.4042 9.11606
ltoes -18.6664
1340
root 49.7854 16.2154 -6.12805 1271.88 -102.456 533.853
lowerback 2.91274 0.236936 -1.17261
upperback 2.97386 0.25798 -0.132088
thorax 1.41121 0.0925551 0.517042
lowerneck -3.6896 -7.09024 -6.58093
upperneck -14.0316 -8.41903 16.414
head -2.44188 -4.70892 6.1431
rclavicle -1.65985e-014 -2.06736e-014
rhumerus -39.8343 5.66578 -90.4217
rradius 46.1277
rwrist -16.1289
rhand -28.6143 9.46717
rfingers 7.12502
rthumb -1.97923 -20.5034
lclavicle -1.65985e-014 -2.06736e-014
lhumerus -32.7751 -6.46585 81.901
lradius 55.691
lwrist 21.1329
lhand -16.0087 18.2566
lfingers 7.12502
lthumb 10.1918 47.9897
rfemur -24.251 4.00423 21.6739
rtibia 46.2848
rfoot -29.6997 -8.51405
rtoes 3.45249
lfemur -13.7466 -1.00378 -20.4437
ltibia 35.6213
lfoot -23.4981 9.42431
ltoes -18.2846
